<svg width="16" height="16" viewBox="0 0 16 16" fill="none" xmlns="http://www.w3.org/2000/svg">
<g clip-path="url(#clip0_609501_429)">
<path d="M15.996 16V15.9993H16V10.1313C16 7.26062 15.382 5.04929 12.026 5.04929C10.4127 5.04929 9.33003 5.93462 8.88803 6.77395H8.84137V5.31729H5.65936V15.9993H8.9727V10.71C8.9727 9.31729 9.2367 7.97062 10.9614 7.97062C12.6607 7.97062 12.686 9.55995 12.686 10.7993V16H15.996Z" fill="#F4F4FD"/>
<path d="M0.264038 5.31787H3.58137V15.9999H0.264038V5.31787Z" fill="#F4F4FD"/>
<path d="M1.92136 -9.15527e-05C0.860697 -9.15527e-05 3.05176e-05 0.860575 3.05176e-05 1.92124C3.05176e-05 2.98191 0.860697 3.86058 1.92136 3.86058C2.98203 3.86058 3.8427 2.98191 3.8427 1.92124C3.84203 0.860575 2.98136 -9.15527e-05 1.92136 -9.15527e-05V-9.15527e-05Z" fill="#F4F4FD"/>
</g>
<defs>
<clipPath id="clip0_609501_429">
<rect width="16" height="16" fill="white"/>
</clipPath>
</defs>
</svg>
